<svg width="87" height="34" viewBox="0 0 87 34" fill="none" xmlns="http://www.w3.org/2000/svg">
<path d="M13.5 3.362V6.865H4.479V12.414H11.392V15.855H4.479V25H0.139V3.362H13.5ZM20.9175 10.492C21.4755 9.58267 22.1988 8.86967 23.0875 8.353C23.9968 7.83633 25.0301 7.578 26.1875 7.578V12.135H25.0405C23.6765 12.135 22.6431 12.4553 21.9405 13.096C21.2585 13.7367 20.9175 14.8527 20.9175 16.444V25H16.5775V7.826H20.9175V10.492ZM45.3237 7.826V25H40.9527V22.83C40.3947 23.574 39.661 24.163 38.7517 24.597C37.863 25.0103 36.8917 25.217 35.8377 25.217C34.4943 25.217 33.306 24.938 32.2727 24.38C31.2393 23.8013 30.423 22.9643 29.8237 21.869C29.245 20.753 28.9557 19.4303 28.9557 17.901V7.826H33.2957V17.281C33.2957 18.645 33.6367 19.699 34.3187 20.443C35.0007 21.1663 35.9307 21.528 37.1087 21.528C38.3073 21.528 39.2477 21.1663 39.9297 20.443C40.6117 19.699 40.9527 18.645 40.9527 17.281V7.826H45.3237ZM51.8068 5.78C51.0421 5.78 50.4015 5.54233 49.8848 5.067C49.3888 4.571 49.1408 3.96133 49.1408 3.238C49.1408 2.51467 49.3888 1.91533 49.8848 1.44C50.4015 0.943999 51.0421 0.695999 51.8068 0.695999C52.5715 0.695999 53.2018 0.943999 53.6978 1.44C54.2145 1.91533 54.4728 2.51467 54.4728 3.238C54.4728 3.96133 54.2145 4.571 53.6978 5.067C53.2018 5.54233 52.5715 5.78 51.8068 5.78ZM53.9458 7.826V25H49.6058V7.826H53.9458ZM63.2867 11.391V19.699C63.2867 20.2777 63.4211 20.7013 63.6897 20.97C63.9791 21.218 64.4544 21.342 65.1157 21.342H67.1307V25H64.4027C60.7447 25 58.9157 23.2227 58.9157 19.668V11.391H56.8697V7.826H58.9157V3.579H63.2867V7.826H67.1307V11.391H63.2867ZM86.6823 7.826L76.0493 33.122H71.4303L75.1503 24.566L68.2683 7.826H73.1353L77.5683 19.823L82.0633 7.826H86.6823Z" fill="#243165"/>
</svg>
