<svg width="24" height="23" viewBox="0 0 24 23" fill="none" xmlns="http://www.w3.org/2000/svg">
<path d="M8.99926 22.0005C9.55154 22.0005 9.99926 21.5528 9.99926 21.0005C9.99926 20.4482 9.55154 20.0005 8.99926 20.0005C8.44698 20.0005 7.99926 20.4482 7.99926 21.0005C7.99926 21.5528 8.44698 22.0005 8.99926 22.0005Z" stroke="white" stroke-width="2" stroke-linecap="round" stroke-linejoin="round"/>
<path d="M19.9995 22.0005C20.5518 22.0005 20.9995 21.5528 20.9995 21.0005C20.9995 20.4482 20.5518 20.0005 19.9995 20.0005C19.4472 20.0005 18.9995 20.4482 18.9995 21.0005C18.9995 21.5528 19.4472 22.0005 19.9995 22.0005Z" stroke="white" stroke-width="2" stroke-linecap="round" stroke-linejoin="round"/>
<path d="M1 1H5L7.68 14.39C7.77144 14.8504 8.02191 15.264 8.38755 15.5583C8.75318 15.8526 9.2107 16.009 9.68 16H19.4C19.8693 16.009 20.3268 15.8526 20.6925 15.5583C21.0581 15.264 21.3086 14.8504 21.4 14.39L23 6H6" stroke="white" stroke-width="2" stroke-linecap="round" stroke-linejoin="round"/>
</svg>
